<?xml version="1.0" encoding="utf-8"?>
<!-- Generator: Adobe Illustrator 17.1.0, SVG Export Plug-In . SVG Version: 6.00 Build 0)  -->
<!DOCTYPE svg PUBLIC "-//W3C//DTD SVG 1.1//EN" "http://www.w3.org/Graphics/SVG/1.1/DTD/svg11.dtd">
<svg version="1.1" id="Layer_1" xmlns="http://www.w3.org/2000/svg" xmlns:xlink="http://www.w3.org/1999/xlink" x="0px" y="0px"
	 viewBox="0 0 35.5 40.1" enable-background="new 0 0 35.5 40.1" xml:space="preserve">
<g>
	<path fill="#33485F" d="M24.3,26.7v2.7h0.7c1.1,0,1.2-0.9,1.2-1.4c0-0.4-0.1-1.3-1.4-1.3L24.3,26.7L24.3,26.7z"/>
	<path fill="#33485F" d="M18.7,26.7v1.1h0.7c0.4,0,0.9,0,0.9-0.6c0-0.5-0.4-0.5-0.8-0.5L18.7,26.7L18.7,26.7z"/>
	<path fill="#33485F" d="M32.7,22.1h-0.6v-11l-9.8-11H5.4c-2.9,0-5.2,2.3-5.2,5.2v29.4c0,2.9,2.3,5.2,5.2,5.2h21.4
		c2.9,0,5.2-2.3,5.2-5.2v-1.3h0.6c1.4,0,2.6-1.2,2.6-2.6v-6.1C35.3,23.3,34.1,22.1,32.7,22.1z M22.9,4.6l5.1,5.7h-5.1V4.6z
		 M29.6,34.7c0,1.5-1.2,2.7-2.7,2.7H5.4c-1.5,0-2.7-1.2-2.7-2.7V5.4c0-1.5,1.2-2.7,2.7-2.7h15v10.2h9.1v9.3h-13
		c-1.4,0-2.6,1.2-2.6,2.6v6.1c0,1.4,1.2,2.6,2.6,2.6h13V34.7z M27.9,28c0,1.7-0.9,2.8-2.9,2.8h-2.5v-5.6h2.8
		C27.2,25.2,27.9,26.6,27.9,28z M21.9,27.2c0,1.4-0.9,2-2.2,2h-1v1.7H17v-5.6h2.9C21.4,25.2,21.9,26.4,21.9,27.2z M33,26.7h-2.6v0.7
		h2.2v1.3h-2.2v2.1h-1.7v-5.6H33L33,26.7L33,26.7z"/>
</g>
</svg>
