<?xml version="1.0" encoding="utf-8"?>
<!-- Generator: Adobe Illustrator 17.1.0, SVG Export Plug-In . SVG Version: 6.00 Build 0)  -->
<!DOCTYPE svg PUBLIC "-//W3C//DTD SVG 1.1//EN" "http://www.w3.org/Graphics/SVG/1.1/DTD/svg11.dtd">
<svg version="1.1" id="Layer_1" xmlns="http://www.w3.org/2000/svg" xmlns:xlink="http://www.w3.org/1999/xlink" x="0px" y="0px"
	 viewBox="0 0 37 23.8" enable-background="new 0 0 37 23.8" xml:space="preserve">
<g transform="translate(-1055.000000, -108.000000)">
	<g transform="translate(1057.000000, 110.000000)">
		<g transform="translate(22.500000, 0.000000)">
			<ellipse fill="#367C9C" cx="-5.9" cy="4.4" rx="5.2" ry="5.3"/>
			<path fill="#367C9C" d="M3.3,19.6c-2.4,0.8-5.5,1.4-9,1.4c-3.7,0-7-0.6-9.4-1.5c1.1-3.7,2.7-6.7,4.4-8.7c1.5-0.2,3.2-0.4,5-0.4
				c1.6,0,3.1,0.1,4.5,0.3C0.6,12.7,2.2,15.8,3.3,19.6L3.3,19.6z"/>
		</g>
		<g>
			<ellipse fill="#367C9C" cx="4.6" cy="2.8" rx="3.6" ry="3.7"/>
			<path fill="#367C9C" d="M11.1,13.5c-1.7,0.6-3.9,1-6.3,1c-2.6,0-4.9-0.4-6.6-1.1c0.8-2.6,1.8-4.7,3.1-6.1
				c1.1-0.2,2.2-0.3,3.5-0.3c1.1,0,2.1,0.1,3.1,0.2C9.2,8.7,10.3,10.8,11.1,13.5L11.1,13.5z"/>
		</g>
		<g transform="translate(58.500000, 0.000000)">
			<path fill="#367C9C" d="M-30.2,6.6c2,0,3.6-1.7,3.6-3.7s-1.6-3.7-3.6-3.7s-3.6,1.7-3.6,3.7S-32.2,6.6-30.2,6.6z"/>
			<path fill="#367C9C" d="M-23.8,13.5c-1.7,0.6-3.9,1-6.3,1c-2.6,0-4.9-0.4-6.6-1.1c0.8-2.6,1.8-4.7,3.1-6.1
				c1.1-0.2,2.2-0.3,3.5-0.3c1.1,0,2.1,0.1,3.1,0.2C-25.6,8.7-24.6,10.8-23.8,13.5L-23.8,13.5z"/>
		</g>
	</g>
</g>
</svg>
